<svg xmlns="http://www.w3.org/2000/svg" data-name="Icon Set" viewBox="0 0 24 30" x="0px" y="0px"><title>Keynote</title><path d="M21.2,16.14a2,2,0,0,1-1.64.86H13v.5h0v3h1V19h1.28a1,1,0,0,1,.95.68l.55,1.66a.5.5,0,0,1-.47.66H7.69a.5.5,0,0,1-.47-.66l.55-1.66A1,1,0,0,1,8.72,19H10v1.5h1v-3h0V17H4.44a2,2,0,0,1-1.87-2.7l2.25-6A2,2,0,0,1,6.69,7H7V4.82a1,1,0,0,1,.8-1l2.3-.46A2,2,0,1,1,10.28,5H8.5a.5.5,0,0,0-.5.5V11a.5.5,0,0,1-1,0V8H6.69a1,1,0,0,0-.94.65l-2.25,6A1,1,0,0,0,4.44,16H19.56a1,1,0,0,0,.94-1.35l-2.25-6A1,1,0,0,0,17.31,8H9V7h8.31a2,2,0,0,1,1.87,1.3l2.25,6A2,2,0,0,1,21.2,16.14ZM17,10H10L9,14h9Z"/><text x="0" y="39" fill="#000000" font-size="5px" font-weight="bold" font-family="'Helvetica Neue', Helvetica, Arial-Unicode, Arial, Sans-serif">Created by Nathan Gathright</text><text x="0" y="44" fill="#000000" font-size="5px" font-weight="bold" font-family="'Helvetica Neue', Helvetica, Arial-Unicode, Arial, Sans-serif">from the Noun Project</text></svg>