<svg xmlns="http://www.w3.org/2000/svg" version="1.1" viewBox="-5.0 -10.0 110.0 135.0">
 <path d="m26.344 15.344c-1.2773 1.6719-1.5234 4.0391-1.4102 6.1562h-11.766c-0.93359 0-1.6914 0.75781-1.6914 1.6914s0.75781 1.6914 1.6914 1.6914h11.762v6.1523h-11.762c-0.93359 0-1.6914 0.75781-1.6914 1.6914 0 0.93359 0.75781 1.6914 1.6914 1.6914l11.762 0.003906v6.1523h-11.762c-0.93359 0-1.6914 0.75781-1.6914 1.6914s0.75781 1.6914 1.6914 1.6914l11.762 0.003907v6.1523h-11.762c-0.93359 0-1.6914 0.75781-1.6914 1.6914 0 0.93359 0.75781 1.6914 1.6914 1.6914h11.762v6.1523l-11.762 0.003906c-0.93359 0-1.6914 0.75781-1.6914 1.6914s0.75781 1.6914 1.6914 1.6914h11.762v6.1523l-11.762 0.003906c-0.93359 0-1.6914 0.75781-1.6914 1.6914 0 0.93359 0.75781 1.6914 1.6914 1.6914h11.762v12.082h-14.031c-1.2305 0-2.3555-0.50781-3.168-1.3203s-1.3203-1.9336-1.3203-3.168v-61.473h10.324c2.6367-0.007812 4.9727-1.2969 6.4375-3.3516zm-5.125-4.5195v-7.9297l-12.414 12.414h7.9297c2.4727 0.003906 4.4805-2.0195 4.4844-4.4844zm16.141 44.594h21.285c0.33203 0 0.59375-0.26172 0.59375-0.59375v-24.043c0-0.32812-0.26172-0.59375-0.59375-0.59375h-21.285c-0.32812 0-0.59375 0.26172-0.59375 0.59375v24.047c0 0.32812 0.26172 0.58984 0.59375 0.58984zm-4.5586-43.461h38.883v-6.9688c0-2.4648-2.0234-4.4883-4.4883-4.4883h-42.59c-0.027344 0.50781 0.074219 11.391-0.082031 11.457 1.2344-0.027343 7.1797 0.046875 8.2773 0zm60.789 21.582v61.477c0 2.4648-2.0234 4.4883-4.4883 4.4883l-56.301-0.003906c-2.4648 0-4.4883-2.0234-4.4883-4.4883v-43.207c-0.003906-8.5 0.003906-20.113 0-28.613 0.042969-1.9453-0.40625-5.1562 1.3203-6.5273 0.8125-0.8125 1.9375-1.3203 3.168-1.3203h8.5547 34.039c0.066407 1.1797-0.17969 11.109 0.1875 12.023h-6.7852c-1.4766 0.007812-1.4766 2.25 0 2.2578h7.668c1.4023 2.3789 3.918 3.9062 6.8008 3.9141zm-24.793 5.625h18.035c1.4805-0.007812 1.4688-2.25 0-2.2578h-18.035c-1.4805 0.007812-1.4688 2.25 0 2.2578zm0 9.5352h18.035c1.4805-0.007813 1.4688-2.25 0-2.2578h-18.035c-1.4805 0.007813-1.4688 2.2539 0 2.2578zm0 9.5391h18.035c1.4805-0.007812 1.4688-2.25 0-2.2578h-18.035c-1.4805 0.007812-1.4688 2.2539 0 2.2578zm-33.723 6.7188c-2.2227 0.011719-2.1992 3.3789 0 3.3867h51.758c2.2266-0.011719 2.1914-3.3789 0-3.3867zm51.758 9.5391h-51.758c-2.2227 0.011718-2.1992 3.3789 0 3.3867h51.758c2.2266-0.011718 2.1914-3.3828 0-3.3867zm-53.453-19.672c0 1.0898 0.44922 2.082 1.168 2.8047 0.72656 0.72656 1.7188 1.1719 2.8125 1.1719h21.285c2.1836 0.003907 3.9805-1.8008 3.9805-3.9766v-24.043c0-2.1836-1.8008-3.9805-3.9805-3.9766l-21.285-0.003907c-2.1836 0-3.9805 1.8008-3.9766 3.9766zm55.145 30.902c0-0.93359-0.75781-1.6914-1.6914-1.6914h-51.758c-0.93359 0-1.6914 0.75781-1.6914 1.6914 0 0.93359 0.75781 1.6914 1.6914 1.6914h51.758c0.93359 0 1.6914-0.75781 1.6914-1.6914zm-5.2578-55.574h7.9297l-12.414-12.414v7.9297c0 1.2305 0.50391 2.3555 1.3203 3.168 0.8125 0.8125 1.9336 1.3164 3.1641 1.3164z" fill-rule="evenodd"/>
<text x="0.0" y="117.5" font-size="5.0" font-weight="bold" font-family="Arbeit Regular, Helvetica, Arial-Unicode, Arial, Sans-serif" fill="#000000">Created by karyative</text><text x="0.0" y="122.5" font-size="5.0" font-weight="bold" font-family="Arbeit Regular, Helvetica, Arial-Unicode, Arial, Sans-serif" fill="#000000">from Noun Project</text></svg>