<svg xmlns="http://www.w3.org/2000/svg" xmlns:xlink="http://www.w3.org/1999/xlink" version="1.1" x="0px" y="0px" viewBox="0 0 336.051 630" style="enable-background:new 0 0 336.051 504;" xml:space="preserve"><g><path d="M321.547,88.207c-10.131-2.843-20.804,2.604-24.295,12.394l-19.451,54.545c-0.704,1.975-2.164,3.55-4.111,4.436   c-2.006,0.914-4.245,0.975-6.302,0.167c-3.433-1.349-5.423-4.772-4.839-8.325l16.372-99.622   c1.732-10.544-5.153-20.826-15.676-23.408c-5.628-1.383-11.645-0.392-16.513,2.713c-4.841,3.087-8.112,7.859-9.213,13.437   l-18.552,94.073c-0.958,4.858-5.82,8.142-10.825,7.326c-4.614-0.756-7.996-4.758-7.867-9.31L203.503,22.6   c0.168-5.922-2.03-11.539-6.189-15.816C193.061,2.409,187.334,0,181.185,0C169,0,159.197,9.396,158.868,21.391l-3.299,119.777   c-0.119,4.298-3.366,7.936-7.722,8.648c-2.568,0.416-5.117-0.201-7.182-1.746c-1.987-1.489-3.246-3.644-3.546-6.067L124.71,41.516   c-1.492-12.087-12.709-20.825-24.994-19.489c-12.271,1.339-21.271,12.271-20.063,24.369l17.179,171.966   c0.675,6.762-0.851,13.542-4.315,19.377c-3.014-2.363-5.774-5.051-8.205-8.033l-39.744-48.76   c-8.421-10.33-23.458-12.21-34.237-4.277l-0.325,0.239c-10.822,7.967-13.217,22.735-5.452,33.623l39.257,55.041   c3.511,4.923,6.068,10.267,7.603,15.881c4.538,16.622,12.362,31.79,23.255,45.083c8.947,10.919,19.695,20.195,31.946,27.569   c4.875,2.935,7.903,8.276,7.903,13.939V500c0,2.209,1.791,4,4,4s4-1.791,4-4V368.044c0-8.453-4.513-16.42-11.778-20.793   c-11.463-6.901-21.518-15.577-29.884-25.786c-10.175-12.418-17.484-26.589-21.726-42.12c-1.783-6.528-4.746-12.725-8.806-18.418   l-39.257-55.041c-5.199-7.29-3.582-17.188,3.682-22.536l0.325-0.239c7.338-5.4,17.568-4.132,23.293,2.89l39.744,48.76   c8.662,10.627,20.891,18.063,34.434,20.937c2.155,0.46,4.284-0.922,4.743-3.083c0.458-2.161-0.922-4.284-3.083-4.743   c-5.305-1.126-10.373-3.063-15.032-5.688c4.487-7.379,6.48-16.006,5.621-24.615L87.614,45.601   c-0.773-7.749,5.044-14.757,12.969-15.621c7.967-0.871,15.228,4.746,16.188,12.517l12.41,100.487   c0.568,4.604,2.944,8.685,6.689,11.489c3.766,2.821,8.604,4.003,13.269,3.238c8.136-1.331,14.203-8.195,14.427-16.322   l3.299-119.778C167.074,13.979,173.365,8,181.185,8c3.969,0,7.659,1.548,10.392,4.359c2.64,2.715,4.035,6.271,3.93,10.014   l-3.228,114.032c-0.242,8.538,6.021,16.031,14.571,17.431c9.39,1.54,18.151-4.472,19.967-13.673l18.552-94.073   c0.673-3.413,2.685-6.339,5.665-8.239c3.08-1.965,6.74-2.563,10.305-1.688c6.601,1.62,10.766,7.785,9.688,14.342l-16.372,99.622   c-1.2,7.31,2.833,14.328,9.81,17.068c4.091,1.604,8.543,1.486,12.54-0.331c3.935-1.791,6.894-4.998,8.332-9.03l19.451-54.545   c2.085-5.849,8.498-9.09,14.6-7.378c5.984,1.678,9.613,7.441,8.44,13.405l-36.674,186.512   c-3.304,16.803-12.305,32.322-25.345,43.698c-10.676,9.314-16.799,22.703-16.799,36.733V500c0,2.209,1.791,4,4,4s4-1.791,4-4   V376.259c0-11.719,5.124-22.91,14.059-30.705c14.37-12.537,24.29-29.648,27.935-48.184l36.674-186.512   C337.662,100.761,331.588,91.023,321.547,88.207z"/><path d="M252.448,218.089c-4.641-8.534-15.348-17.836-27.887-18.088c-0.181-0.004-0.362-0.006-0.543-0.006   c-12.433,0-24.412,8.574-32.142,22.538c-7.73-13.965-19.708-22.538-32.142-22.538c-0.18,0-0.363,0.002-0.543,0.006   c-12.54,0.252-23.247,9.554-27.888,18.088c-8.445,15.529-1.482,38.326,20.694,67.757c16.783,22.272,36.346,40.341,37.17,41.099   c0.766,0.704,1.737,1.056,2.708,1.056s1.942-0.352,2.708-1.056c0.824-0.758,20.387-18.826,37.169-41.099   C253.931,256.415,260.893,233.618,252.448,218.089z M191.877,318.52c-21.778-20.745-67.058-71.761-53.545-96.608   c2.981-5.482,11.04-13.711,21.021-13.912c0.124-0.002,0.246-0.004,0.369-0.004c11.16,0,22.544,10.168,28.422,25.441   c0.595,1.545,2.079,2.563,3.733,2.563s3.139-1.019,3.733-2.563c5.878-15.274,17.262-25.441,28.422-25.441   c0.122,0,0.246,0.002,0.369,0.004c9.979,0.201,18.038,8.43,21.02,13.912C258.934,246.759,213.655,297.774,191.877,318.52z"/></g><text x="0" y="519" fill="#000000" font-size="5px" font-weight="bold" font-family="'Helvetica Neue', Helvetica, Arial-Unicode, Arial, Sans-serif">Created by Amethyst Studio</text><text x="0" y="524" fill="#000000" font-size="5px" font-weight="bold" font-family="'Helvetica Neue', Helvetica, Arial-Unicode, Arial, Sans-serif">from the Noun Project</text></svg>